<svg width="64" height="64" viewBox="0 0 24 24" fill="none" xmlns="http://www.w3.org/2000/svg">
  <path d="M13 2H6C4.89543 2 4 2.89543 4 4V20C4 21.1046 4.89543 22 6 22H18C19.1046 22 20 21.1046 20 20V9L13 2Z" fill="#f43f5e"/>
  <path d="M13 2V9H20L13 2Z" fill="white" opacity="0.3"/>
  <g transform="translate(7.5, 11) scale(0.55)" fill="white">
    <path d="M6 13c0 1.105-1.12 2-2.5 2S1 14.105 1 13s1.12-2 2.5-2 2.5.896 2.5 2m9-2c0 1.105-1.12 2-2.5 2s-2.5-.895-2.5-2 1.12-2 2.5-2 2.5.895 2.5 2"/>
    <path fill-rule="evenodd" d="M14 11V2h1v9zM6 3v10H5V3z"/>
    <path d="M5 2.905a1 1 0 0 1 .9-.995l8-.8a1 1 0 0 1 1.1.995V3L5 4z"/>
  </g>
</svg>