<svg width="64" height="64" viewBox="0 0 24 24" fill="none" xmlns="http://www.w3.org/2000/svg">
  <path d="M3 7C3 5.89543 3.89543 5 5 5H9.58579C10.1162 5 10.625 5.21071 11 5.58579L13.4142 8H19C20.1046 8 21 8.89543 21 10V18C21 19.1046 20.1046 20 19 20H5C3.89543 20 3 19.1046 3 18V7Z" fill="#dc2626"/>
  <path d="M3 10H21V18C21 19.1046 20.1046 20 19 20H5C3.89543 20 3 19.1046 3 18V10Z" fill="white" opacity="0.1"/>
  <g transform="translate(8.5, 11) scale(0.3)" stroke="white" stroke-width="2.5" stroke-linecap="round" stroke-linejoin="round">
    <circle cx="18" cy="5" r="3"/>
    <circle cx="6" cy="12" r="3"/>
    <circle cx="18" cy="19" r="3"/>
    <line x1="8.59" x2="15.42" y1="13.51" y2="17.49"/>
    <line x1="15.41" x2="8.59" y1="6.51" y2="10.49"/>
  </g>
</svg>