<svg width="64" height="64" viewBox="0 0 24 24" fill="none" xmlns="http://www.w3.org/2000/svg">
  <path d="M3 7C3 5.89543 3.89543 5 5 5H9.58579C10.1162 5 10.625 5.21071 11 5.58579L13.4142 8H19C20.1046 8 21 8.89543 21 10V18C21 19.1046 20.1046 20 19 20H5C3.89543 20 3 19.1046 3 18V7Z" fill="#dc2626"/>
  <path d="M3 10H21V18C21 19.1046 20.1046 20 19 20H5C3.89543 20 3 19.1046 3 18V10Z" fill="white" opacity="0.1"/>
  <g transform="translate(8.5, 11) scale(0.3)" stroke="white" stroke-width="2.5" stroke-linecap="round" stroke-linejoin="round">
     <rect width="18" height="11" x="3" y="11" rx="2" ry="2"/>
     <path d="M7 11V7a5 5 0 0 1 10 0v4"/>
  </g>
</svg>