<?xml version="1.0" ?>
<svg xmlns="http://www.w3.org/2000/svg" version="1.1" width="1024" height="1024">
	<g fill="none" stroke-linecap="butt">
		<path stroke="#F23329FE" d="M 512.00 422.00 L 512.00 422.00 C 512.00 422.00 512.23 465.20 512.50 518.00 C 512.77 570.80 512.77 615.80 512.00 622.00" vector-effect="non-scaling-stroke"/>
		<path stroke="#FF000001" d="M 242.00 443.00 L 242.00 443.00 C 242.00 443.00 242.00 443.23 242.00 443.50 C 242.00 443.77 242.00 444.68 242.00 447.00" vector-effect="non-scaling-stroke"/>
		<path stroke="#C41D18FE" d="M 513.00 622.00 L 513.00 622.00 C 513.00 622.00 513.00 621.33 513.00 620.50 C 513.00 619.67 513.45 619.23 514.00 619.50 C 514.55 619.77 517.48 618.65 520.50 617.00 C 523.52 615.35 530.27 611.75 535.50 609.00 C 540.73 606.25 555.80 598.15 569.00 591.00 C 582.20 583.85 603.80 572.15 617.00 565.00 C 630.20 557.85 653.60 545.25 669.00 537.00 C 684.40 528.75 698.35 521.10 703.00 518.00" vector-effect="non-scaling-stroke"/>
		<path stroke="#FE3F31FE" d="M 316.00 525.00 L 316.00 525.00 C 316.00 525.00 316.68 524.10 317.50 523.00 C 318.42 521.78 320.17 521.00 322.00 521.00 C 323.67 521.00 329.22 523.22 334.50 526.00 C 339.73 528.75 348.95 533.70 355.00 537.00 C 361.05 540.30 369.38 544.80 373.50 547.00 C 377.62 549.20 385.50 553.48 391.00 556.50 C 396.50 559.52 407.98 565.83 416.50 570.50 C 425.02 575.17 435.38 580.80 439.50 583.00 C 443.62 585.20 458.93 593.52 473.50 601.50 C 488.07 609.48 502.02 616.90 504.50 618.00 C 507.67 619.41 509.00 620.59 509.00 622.00 C 509.00 623.10 508.55 624.45 507.00 626.00" vector-effect="non-scaling-stroke"/>
		<path stroke="#DC2820FE" d="M 309.00 620.00 L 309.00 620.00 C 309.00 620.00 311.02 621.12 313.50 622.50 C 315.98 623.88 323.18 627.92 329.50 631.50 C 335.82 635.08 351.35 643.85 364.00 651.00 C 376.65 658.15 391.50 666.48 397.00 669.50 C 402.50 672.52 414.88 679.50 424.50 685.00 C 437.64 692.51 442.62 694.88 447.00 694.00" vector-effect="non-scaling-stroke"/>
		<path stroke="#BC1C18FE" d="M 577.00 697.00 L 577.00 697.00 C 577.00 697.00 577.67 696.77 578.50 696.50 C 579.33 696.23 584.27 693.52 589.50 690.50 C 594.73 687.48 609.12 679.38 621.50 672.50 C 633.88 665.62 657.95 652.12 675.00 642.50 C 692.05 632.88 707.58 624.33 713.00 622.00" vector-effect="non-scaling-stroke"/>
		<path stroke="#E800006A" d="M 311.00 630.00 L 311.00 630.00 C 311.00 630.00 311.23 630.90 311.50 632.00 C 311.77 633.10 311.77 635.12 311.00 639.00" vector-effect="non-scaling-stroke"/>
		<path stroke="#FF000001" d="M 311.00 641.00 L 311.00 641.00 C 311.00 641.00 311.00 641.23 311.00 641.50 C 311.00 641.77 311.00 642.45 311.00 644.00" vector-effect="non-scaling-stroke"/>
		<path stroke="#F43329FE" d="M 311.00 647.00 L 311.00 647.00 C 311.00 647.00 317.52 650.60 325.50 655.00 C 333.48 659.40 356.43 672.23 376.50 683.50 C 396.57 694.77 421.55 708.95 432.00 715.00 C 449.27 725.00 451.45 726.00 456.00 726.00 C 459.92 726.00 462.62 725.13 468.50 722.00 C 472.62 719.80 480.73 715.30 497.00 706.00" vector-effect="non-scaling-stroke"/>
		<path stroke="#A41614" d="M 705.00 655.50 C 705.00 655.23 705.90 655.45 707.00 656.00 C 708.80 656.90 708.56 657.20 700.00 661.00 L 702.50 658.50 C 703.88 657.12 705.00 655.77 705.00 655.50" vector-effect="non-scaling-stroke"/>
		<path stroke="#CB000063" d="M 527.00 680.00 L 527.00 680.00 C 527.00 680.00 527.23 680.90 527.50 682.00 C 527.77 683.10 527.77 685.35 527.00 690.00" vector-effect="non-scaling-stroke"/>
		<path stroke="#FF000001" d="M 713.00 685.00 L 713.00 685.00 C 713.00 685.00 713.00 684.77 713.00 684.50 C 713.00 684.23 713.00 683.33 713.00 681.00" vector-effect="non-scaling-stroke"/>
		<path stroke="#FF000001" d="M 713.00 703.00 L 713.00 703.00 C 713.00 703.00 713.00 702.77 713.00 702.50 C 713.00 702.23 713.00 700.88 713.00 697.00" vector-effect="non-scaling-stroke"/>
		<path stroke="#FF000001" d="M 527.00 703.00 L 527.00 703.00 C 527.00 703.00 527.00 703.90 527.00 705.00 C 527.00 706.10 526.77 707.00 526.00 707.00" vector-effect="non-scaling-stroke"/>
		<path stroke="#FF000001" d="M 497.00 718.00 L 497.00 718.00 C 497.00 718.00 497.00 717.77 497.00 717.50 C 497.00 717.23 497.00 716.33 497.00 714.00" vector-effect="non-scaling-stroke"/>
		<path stroke="#FF000001" d="M 527.00 722.00 L 527.00 722.00 C 527.00 722.00 527.00 722.45 527.00 723.00 C 527.00 723.55 526.77 724.00 526.00 724.00" vector-effect="non-scaling-stroke"/>
		<path stroke="#FF000001" d="M 526.00 725.00 L 526.00 725.00 C 526.00 725.00 526.23 725.00 526.50 725.00 C 526.77 725.00 527.00 725.45 527.00 727.00" vector-effect="non-scaling-stroke"/>
		<path stroke="#FF000001" d="M 527.00 728.00 L 527.00 728.00 C 527.00 728.00 527.00 728.23 527.00 728.50 C 527.00 728.77 527.00 729.45 527.00 731.00" vector-effect="non-scaling-stroke"/>
		<path stroke="#FF000001" d="M 527.00 738.00 L 527.00 738.00 C 527.00 738.00 527.00 738.23 527.00 738.50 C 527.00 738.77 527.00 739.45 527.00 741.00" vector-effect="non-scaling-stroke"/>
		<path stroke="#FF000002" d="M 497.00 744.00 L 497.00 744.00 C 497.00 744.00 497.00 743.77 497.00 743.50 C 497.00 743.23 497.00 742.33 497.00 740.00" vector-effect="non-scaling-stroke"/>
		<path stroke="#FF000001" d="M 497.00 757.00 L 497.00 757.00 C 497.00 757.00 497.00 756.77 497.00 756.50 C 497.00 756.23 497.00 755.33 497.00 753.00" vector-effect="non-scaling-stroke"/>
		<path stroke="#DB00006B" d="M 526.00 775.00 L 526.00 775.00 C 526.00 775.00 526.45 775.23 527.00 775.50 C 527.55 775.77 527.77 777.35 527.00 782.00" vector-effect="non-scaling-stroke"/>
		<path stroke="#FF000001" d="M 527.00 785.00 L 527.00 785.00 C 527.00 785.00 527.00 785.23 527.00 785.50 C 527.00 785.77 527.00 786.67 527.00 789.00" vector-effect="non-scaling-stroke"/>
		<path stroke="#FF000001" d="M 527.00 790.00 L 527.00 790.00 C 527.00 790.00 527.00 790.23 527.00 790.50 C 527.00 790.77 527.00 792.80 527.00 799.00" vector-effect="non-scaling-stroke"/>
		<path stroke="#FF000001" d="M 527.00 804.00 L 527.00 804.00 C 527.00 804.00 527.00 804.23 527.00 804.50 C 527.00 804.77 527.00 805.67 527.00 808.00" vector-effect="non-scaling-stroke"/>
		<path stroke="#FF000001" d="M 497.00 821.00 L 497.00 821.00 C 497.00 821.00 497.00 820.77 497.00 820.50 C 497.00 820.23 497.00 819.33 497.00 817.00" vector-effect="non-scaling-stroke"/>
	</g>
	<path fill="#FE3E30FE" d="M 242.00 447.00 C 242.00 444.68 242.00 443.77 242.00 443.50 C 242.00 443.23 242.00 443.00 242.00 443.00 L 242.00 443.00 C 242.78 431.38 243.68 425.07 244.50 421.50 C 245.32 417.93 247.80 410.27 250.00 404.50 C 252.42 398.15 256.37 390.44 260.00 385.00 C 263.33 380.00 270.44 371.56 276.00 366.00 C 281.50 360.50 289.38 353.75 293.50 351.00 C 297.62 348.25 305.73 344.20 311.50 342.00 C 317.27 339.80 325.82 337.32 330.50 336.50 C 336.60 335.42 343.09 335.14 353.50 335.50 L 368.00 336.00 C 371.88 322.05 375.25 313.73 378.00 308.50 C 380.75 303.27 385.93 294.73 389.50 289.50 C 393.18 284.13 400.78 275.22 407.00 269.00 C 413.05 262.95 421.38 255.53 425.50 252.50 C 429.62 249.47 436.82 244.97 441.50 242.50 C 446.18 240.03 453.15 236.65 457.00 235.00 C 460.85 233.35 467.82 230.88 472.50 229.50 C 477.18 228.12 485.50 226.32 491.00 225.50 C 496.50 224.68 505.73 224.00 511.50 224.00 C 517.27 224.00 526.27 224.68 531.50 225.50 C 536.73 226.32 545.73 228.35 551.50 230.00 C 557.27 231.65 566.73 235.25 572.50 238.00 C 578.27 240.75 587.50 245.93 593.00 249.50 C 600.11 254.12 606.76 259.76 616.00 269.00 C 625.83 278.83 630.83 284.80 636.50 293.50 C 640.62 299.82 645.80 308.82 648.00 313.50 C 650.20 318.18 652.90 325.15 654.00 329.00 L 656.00 336.00 C 688.67 336.00 693.48 336.37 700.00 338.00 C 704.40 339.10 712.27 342.02 717.50 344.50 C 722.73 346.98 729.70 350.80 733.00 353.00 C 736.30 355.20 743.05 361.05 748.00 366.00 C 752.95 370.95 759.48 378.82 762.50 383.50 C 765.52 388.18 769.58 395.38 771.50 399.50 C 773.42 403.62 776.12 410.82 777.50 415.50 C 778.88 420.18 780.45 428.73 781.00 434.50 C 781.67 441.50 781.67 448.33 781.00 455.00 C 780.45 460.50 778.88 468.82 777.50 473.50 C 776.12 478.18 773.20 485.60 771.00 490.00 C 768.80 494.40 764.98 501.15 762.50 505.00 C 760.02 508.85 754.40 515.38 750.00 519.50 L 742.00 527.00 C 729.60 506.07 724.42 498.65 722.50 497.00 C 720.58 495.35 712.48 490.62 704.50 486.50 C 696.52 482.38 684.83 476.30 678.50 473.00 C 672.17 469.70 647.88 457.10 624.50 445.00 C 601.12 432.90 571.88 418.05 559.50 412.00 C 547.12 405.95 534.30 399.88 531.00 398.50 C 527.70 397.12 523.65 395.55 522.00 395.00 C 520.35 394.45 515.62 394.00 511.50 394.00 C 507.38 394.00 501.75 394.68 499.00 395.50 C 496.25 396.32 479.15 404.43 461.00 413.50 C 442.85 422.57 424.62 431.80 420.50 434.00 C 416.38 436.20 402.65 443.40 390.00 450.00 C 377.35 456.60 364.30 463.35 361.00 465.00 C 357.70 466.65 343.98 473.85 330.50 481.00 C 317.02 488.15 304.20 495.35 302.00 497.00 C 299.20 499.10 295.60 504.05 290.00 513.50 C 285.60 520.92 281.55 527.00 281.00 527.00 C 280.45 527.00 275.95 522.73 271.00 517.50 C 265.36 511.55 260.32 505.01 257.50 500.00 C 255.03 495.60 251.65 488.85 250.00 485.00 C 248.35 481.15 246.10 474.40 245.00 470.00 C 243.90 465.60 242.78 458.62 242.50 454.50 C 242.22 450.38 242.00 447.00 242.00 447.00 L 242.00 447.00 Z" fill-rule="evenodd"/>
	<path fill="#D8251DFE" d="M 703.00 518.00 C 698.35 521.10 684.40 528.75 669.00 537.00 C 653.60 545.25 630.20 557.85 617.00 565.00 C 603.80 572.15 582.20 583.85 569.00 591.00 C 555.80 598.15 540.73 606.25 535.50 609.00 C 530.27 611.75 523.52 615.35 520.50 617.00 C 517.48 618.65 514.55 619.77 514.00 619.50 C 513.45 619.23 513.00 619.67 513.00 620.50 C 513.00 621.33 513.00 622.00 513.00 622.00 L 513.00 622.00 C 512.23 622.00 512.00 622.00 512.00 622.00 L 512.00 622.00 C 512.77 615.80 512.77 570.80 512.50 518.00 C 512.23 465.20 512.00 422.00 512.00 422.00 L 512.00 422.00 C 512.77 421.23 515.48 421.68 518.50 422.50 C 521.52 423.32 525.12 424.68 526.50 425.50 C 527.88 426.32 541.15 433.30 556.00 441.00 C 570.85 448.70 585.92 456.57 589.50 458.50 C 593.08 460.43 608.15 468.30 623.00 476.00 C 637.85 483.70 661.92 496.30 676.50 504.00 C 691.08 511.70 703.00 518.00 703.00 518.00 L 703.00 518.00 Z" fill-rule="evenodd"/>
	<path fill="#F23329FE" d="M 512.00 422.00 L 512.00 422.00 C 512.00 422.00 512.23 465.20 512.50 518.00 C 512.77 570.80 512.77 615.80 512.00 622.00 C 508.90 624.33 507.77 625.23 507.50 625.50 C 507.23 625.77 507.00 626.00 507.00 626.00 L 507.00 626.00 C 508.55 624.45 509.00 623.10 509.00 622.00 C 509.00 620.59 507.67 619.41 504.50 618.00 C 502.02 616.90 488.07 609.48 473.50 601.50 C 458.93 593.52 443.62 585.20 439.50 583.00 C 435.38 580.80 425.02 575.17 416.50 570.50 C 407.98 565.83 396.50 559.52 391.00 556.50 C 385.50 553.48 377.62 549.20 373.50 547.00 C 369.38 544.80 361.05 540.30 355.00 537.00 C 348.95 533.70 339.73 528.75 334.50 526.00 C 329.22 523.22 323.67 521.00 322.00 521.00 C 320.17 521.00 318.42 521.78 317.50 523.00 C 316.68 524.10 316.00 525.00 316.00 525.00 L 316.00 525.00 C 322.28 517.82 329.68 513.50 355.50 500.00 C 373.38 490.65 392.27 480.75 397.50 478.00 C 402.73 475.25 413.52 469.62 421.50 465.50 C 429.48 461.38 450.62 450.35 468.50 441.00 C 486.38 431.65 502.12 423.55 503.50 423.00 C 504.88 422.45 507.35 422.00 509.00 422.00 C 510.65 422.00 512.00 422.00 512.00 422.00 L 512.00 422.00 Z" fill-rule="evenodd"/>
	<path fill="#FF000001" d="M 242.00 443.00 L 242.00 443.00 C 242.00 443.00 242.00 443.23 242.00 443.50 C 242.00 443.77 242.00 444.68 242.00 447.00 C 241.22 447.00 241.22 446.10 241.50 445.00 C 241.78 443.90 242.00 443.00 242.00 443.00 L 242.00 443.00 Z" fill-rule="evenodd"/>
	<path fill="#C41D18FE" d="M 703.00 518.00 C 705.33 520.33 715.45 535.62 727.00 553.50 C 739.10 572.22 748.42 587.70 749.00 590.00 C 749.67 592.67 749.67 595.17 749.00 597.50 C 748.45 599.42 747.10 601.67 746.00 602.50 C 744.90 603.33 737.02 608.05 728.50 613.00 C 719.98 617.95 713.00 622.00 713.00 622.00 L 713.00 622.00 C 707.58 624.33 692.05 632.88 675.00 642.50 C 657.95 652.12 633.88 665.62 621.50 672.50 C 609.12 679.38 594.73 687.48 589.50 690.50 C 584.27 693.52 579.33 696.23 578.50 696.50 C 577.67 696.77 577.00 697.00 577.00 697.00 L 577.00 697.00 C 577.00 695.45 573.17 690.73 568.50 685.50 C 563.83 680.27 554.83 669.92 548.50 662.50 C 542.17 655.08 531.60 642.92 525.00 635.50 C 518.40 628.08 513.00 622.00 513.00 622.00 L 513.00 622.00 L 513.00 622.00 C 513.00 622.00 513.00 621.33 513.00 620.50 C 513.00 619.67 513.45 619.23 514.00 619.50 C 514.55 619.77 517.48 618.65 520.50 617.00 C 523.52 615.35 530.27 611.75 535.50 609.00 C 540.73 606.25 555.80 598.15 569.00 591.00 C 582.20 583.85 603.80 572.15 617.00 565.00 C 630.20 557.85 653.60 545.25 669.00 537.00 C 684.40 528.75 698.35 521.10 703.00 518.00 Z" fill-rule="evenodd"/>
	<path fill="#FE3F31FE" d="M 507.00 626.00 C 486.85 649.25 476.73 660.95 471.50 667.00 C 466.27 673.05 458.62 681.60 454.50 686.00 C 450.38 690.40 447.00 694.00 447.00 694.00 L 447.00 694.00 C 442.62 694.88 437.64 692.51 424.50 685.00 C 414.88 679.50 402.50 672.52 397.00 669.50 C 391.50 666.48 376.65 658.15 364.00 651.00 C 351.35 643.85 335.82 635.08 329.50 631.50 C 323.18 627.92 315.98 623.88 313.50 622.50 C 311.02 621.12 309.00 620.00 309.00 620.00 L 309.00 620.00 C 283.96 606.27 277.42 602.04 276.50 600.50 C 275.68 599.12 275.00 595.98 275.00 593.50 C 275.00 589.41 276.37 586.85 290.00 565.50 C 298.25 552.58 307.48 538.17 310.50 533.50 C 313.52 528.83 316.00 525.00 316.00 525.00 L 316.00 525.00 L 316.00 525.00 C 316.00 525.00 316.68 524.10 317.50 523.00 C 318.42 521.78 320.17 521.00 322.00 521.00 C 323.67 521.00 329.22 523.22 334.50 526.00 C 339.73 528.75 348.95 533.70 355.00 537.00 C 361.05 540.30 369.38 544.80 373.50 547.00 C 377.62 549.20 385.50 553.48 391.00 556.50 C 396.50 559.52 407.98 565.83 416.50 570.50 C 425.02 575.17 435.38 580.80 439.50 583.00 C 443.62 585.20 458.93 593.52 473.50 601.50 C 488.07 609.48 502.02 616.90 504.50 618.00 C 507.67 619.41 509.00 620.59 509.00 622.00 C 509.00 623.10 508.55 624.45 507.00 626.00 Z" fill-rule="evenodd"/>
	<path fill="#DC2820FE" d="M 309.00 620.00 L 309.00 620.00 C 309.00 620.00 311.02 621.12 313.50 622.50 C 315.98 623.88 323.18 627.92 329.50 631.50 C 335.82 635.08 351.35 643.85 364.00 651.00 C 376.65 658.15 391.50 666.48 397.00 669.50 C 402.50 672.52 414.88 679.50 424.50 685.00 C 437.64 692.51 442.62 694.88 447.00 694.00 C 447.00 696.33 447.45 697.45 448.00 698.00 C 448.55 698.55 450.80 699.00 453.00 699.00 C 455.67 699.00 459.17 697.83 463.50 695.50 C 467.07 693.58 475.85 688.40 483.00 684.00 C 490.15 679.60 496.23 676.00 496.50 676.00 C 496.77 676.00 497.00 682.75 497.00 691.00 C 497.00 699.25 497.00 706.00 497.00 706.00 L 497.00 706.00 C 480.73 715.30 472.62 719.80 468.50 722.00 C 462.62 725.13 459.92 726.00 456.00 726.00 C 451.45 726.00 449.27 725.00 432.00 715.00 C 421.55 708.95 396.57 694.77 376.50 683.50 C 356.43 672.23 333.48 659.40 325.50 655.00 C 317.52 650.60 311.00 647.00 311.00 647.00 L 311.00 647.00 C 311.00 645.45 311.00 644.77 311.00 644.50 C 311.00 644.23 311.00 644.00 311.00 644.00 L 311.00 644.00 C 311.00 642.45 311.00 641.77 311.00 641.50 C 311.00 641.23 311.00 641.00 311.00 641.00 L 311.00 641.00 C 311.00 640.23 311.00 639.77 311.00 639.50 C 311.00 639.23 311.00 639.00 311.00 639.00 L 311.00 639.00 C 311.77 635.12 311.77 633.10 311.50 632.00 C 311.23 630.90 311.00 630.00 311.00 630.00 L 311.00 630.00 C 311.00 623.80 310.55 621.55 310.00 621.00 C 309.45 620.45 309.00 620.00 309.00 620.00 L 309.00 620.00 Z" fill-rule="evenodd"/>
	<path fill="#BC1C18FE" d="M 713.00 622.00 C 713.00 666.95 713.00 680.23 713.00 680.50 C 713.00 680.77 713.00 681.00 713.00 681.00 L 713.00 681.00 C 713.00 683.33 713.00 684.23 713.00 684.50 C 713.00 684.77 713.00 685.00 713.00 685.00 L 713.00 685.00 C 713.00 693.52 713.00 696.23 713.00 696.50 C 713.00 696.77 713.00 697.00 713.00 697.00 L 713.00 697.00 C 713.00 700.88 713.00 702.23 713.00 702.50 C 713.00 702.77 713.00 703.00 713.00 703.00 L 713.00 703.00 C 713.77 706.10 713.55 709.70 713.00 713.00 C 712.45 716.30 711.10 720.80 710.00 723.00 C 708.90 725.20 706.65 728.12 705.00 729.50 C 703.35 730.88 688.27 739.88 671.50 749.50 C 654.73 759.12 633.58 771.27 624.50 776.50 C 615.42 781.73 594.27 793.88 577.50 803.50 C 560.73 813.12 544.08 822.80 540.50 825.00 C 536.92 827.20 533.33 829.00 532.50 829.00 C 531.67 829.00 530.10 828.10 529.00 827.00 C 527.31 825.31 527.00 823.67 527.00 816.50 C 527.00 811.83 527.00 808.00 527.00 808.00 L 527.00 808.00 C 527.00 805.67 527.00 804.77 527.00 804.50 C 527.00 804.23 527.00 804.00 527.00 804.00 L 527.00 804.00 C 527.00 800.90 527.00 799.77 527.00 799.50 C 527.00 799.23 527.00 799.00 527.00 799.00 L 527.00 799.00 C 527.00 792.80 527.00 790.77 527.00 790.50 C 527.00 790.23 527.00 790.00 527.00 790.00 L 527.00 790.00 C 527.00 789.23 527.00 789.00 527.00 789.00 L 527.00 789.00 C 527.00 786.67 527.00 785.77 527.00 785.50 C 527.00 785.23 527.00 785.00 527.00 785.00 L 527.00 785.00 C 527.00 783.45 527.00 782.77 527.00 782.50 C 527.00 782.23 527.00 782.00 527.00 782.00 L 527.00 782.00 C 527.77 777.35 527.55 775.77 527.00 775.50 C 526.45 775.23 526.00 775.00 526.00 775.00 L 526.00 775.00 C 526.77 756.40 527.00 748.75 527.00 746.00 C 527.00 743.25 527.00 741.00 527.00 741.00 L 527.00 741.00 C 527.00 739.45 527.00 738.77 527.00 738.50 C 527.00 738.23 527.00 738.00 527.00 738.00 L 527.00 738.00 C 526.23 736.45 526.23 734.88 526.50 733.50 C 526.77 732.12 527.00 731.00 527.00 731.00 L 527.00 731.00 C 527.00 729.45 527.00 728.77 527.00 728.50 C 527.00 728.23 527.00 728.00 527.00 728.00 L 527.00 728.00 C 527.00 727.23 527.00 727.00 527.00 727.00 L 527.00 727.00 C 527.00 725.45 526.77 725.00 526.50 725.00 C 526.23 725.00 526.00 725.00 526.00 725.00 L 526.00 725.00 C 526.00 724.23 526.00 724.00 526.00 724.00 L 526.00 724.00 C 526.77 724.00 527.00 723.55 527.00 723.00 C 527.00 722.45 527.00 722.00 527.00 722.00 L 527.00 722.00 C 526.23 715.02 526.00 711.65 526.00 710.00 C 526.00 708.35 526.00 707.00 526.00 707.00 L 526.00 707.00 C 526.77 707.00 527.00 706.10 527.00 705.00 C 527.00 703.90 527.00 703.00 527.00 703.00 L 527.00 703.00 C 527.00 696.80 527.00 693.88 527.00 692.50 C 527.00 691.12 527.00 690.00 527.00 690.00 L 527.00 690.00 C 527.77 685.35 527.77 683.10 527.50 682.00 C 527.23 680.90 527.00 680.00 527.00 680.00 L 527.00 680.00 C 527.00 677.67 527.00 676.77 527.00 676.50 C 527.00 676.23 527.45 676.00 528.00 676.00 C 528.55 676.00 536.20 680.50 545.00 686.00 C 553.80 691.50 562.35 696.67 564.00 697.50 C 565.65 698.33 568.80 699.00 571.00 699.00 C 573.20 699.00 575.45 698.55 576.00 698.00 C 576.55 697.45 577.00 697.00 577.00 697.00 L 577.00 697.00 L 577.00 697.00 C 577.00 697.00 577.67 696.77 578.50 696.50 C 579.33 696.23 584.27 693.52 589.50 690.50 C 594.73 687.48 609.12 679.38 621.50 672.50 C 633.88 665.62 657.95 652.12 675.00 642.50 C 692.05 632.88 707.58 624.33 713.00 622.00 Z M 705.00 655.50 C 705.00 655.77 703.88 657.12 702.50 658.50 L 700.00 661.00 C 708.56 657.20 708.80 656.90 707.00 656.00 C 705.90 655.45 705.00 655.23 705.00 655.50 Z" fill-rule="evenodd"/>
	<path fill="#E800006A" d="M 311.00 630.00 L 311.00 630.00 C 311.00 630.00 311.23 630.90 311.50 632.00 C 311.77 633.10 311.77 635.12 311.00 639.00 C 310.23 635.12 310.23 633.10 310.50 632.00 C 310.77 630.90 311.00 630.00 311.00 630.00 L 311.00 630.00 Z" fill-rule="evenodd"/>
	<path fill="#FF000001" d="M 311.00 641.00 L 311.00 641.00 C 311.00 641.00 311.00 641.23 311.00 641.50 C 311.00 641.77 311.00 642.45 311.00 644.00 C 310.23 641.67 310.23 641.00 310.50 641.00 C 310.77 641.00 311.00 641.00 311.00 641.00 L 311.00 641.00 Z" fill-rule="evenodd"/>
	<path fill="#F43329FE" d="M 311.00 647.00 L 311.00 647.00 C 311.00 647.00 317.52 650.60 325.50 655.00 C 333.48 659.40 356.43 672.23 376.50 683.50 C 396.57 694.77 421.55 708.95 432.00 715.00 C 449.27 725.00 451.45 726.00 456.00 726.00 C 459.92 726.00 462.62 725.13 468.50 722.00 C 472.62 719.80 480.73 715.30 497.00 706.00 C 497.00 711.42 497.00 713.23 497.00 713.50 C 497.00 713.77 497.00 714.00 497.00 714.00 L 497.00 714.00 C 497.00 716.33 497.00 717.23 497.00 717.50 C 497.00 717.77 497.00 718.00 497.00 718.00 L 497.00 718.00 C 497.00 725.75 497.00 730.70 497.00 734.00 C 497.00 737.30 497.00 740.00 497.00 740.00 L 497.00 740.00 C 497.00 742.33 497.00 743.23 497.00 743.50 C 497.00 743.77 497.00 744.00 497.00 744.00 L 497.00 744.00 C 497.00 750.20 497.00 752.23 497.00 752.50 C 497.00 752.77 497.00 753.00 497.00 753.00 L 497.00 753.00 C 497.00 755.33 497.00 756.23 497.00 756.50 C 497.00 756.77 497.00 757.00 497.00 757.00 L 497.00 757.00 C 497.00 767.08 497.00 780.58 497.00 793.50 C 497.00 806.42 497.00 817.00 497.00 817.00 L 497.00 817.00 C 497.00 819.33 497.00 820.23 497.00 820.50 C 497.00 820.77 497.00 821.00 497.00 821.00 L 497.00 821.00 C 497.00 825.10 496.10 826.54 494.50 827.50 C 493.12 828.33 491.32 828.77 490.50 828.50 C 489.68 828.23 476.18 820.58 460.50 811.50 C 444.82 802.42 410.40 782.62 384.00 767.50 C 357.60 752.38 331.73 737.52 326.50 734.50 C 319.67 730.54 316.44 728.02 315.00 725.50 C 313.90 723.58 312.55 720.42 312.00 718.50 C 311.42 716.48 311.00 700.67 311.00 681.00 C 311.00 662.30 311.00 647.00 311.00 647.00 L 311.00 647.00 Z" fill-rule="evenodd"/>
	<path fill="#A41614" d="M 705.00 655.50 C 705.00 655.23 705.90 655.45 707.00 656.00 C 708.80 656.90 708.56 657.20 700.00 661.00 L 702.50 658.50 C 703.88 657.12 705.00 655.77 705.00 655.50 Z" fill-rule="evenodd"/>
	<path fill="#CB000063" d="M 527.00 680.00 L 527.00 680.00 C 527.00 680.00 527.23 680.90 527.50 682.00 C 527.77 683.10 527.77 685.35 527.00 690.00 C 526.23 686.12 526.23 683.88 526.50 682.50 C 526.77 681.12 527.00 680.00 527.00 680.00 L 527.00 680.00 Z" fill-rule="evenodd"/>
	<path fill="#FF000001" d="M 713.00 681.00 C 713.77 681.00 713.77 681.90 713.50 683.00 C 713.23 684.10 713.00 685.00 713.00 685.00 L 713.00 685.00 L 713.00 685.00 C 713.00 685.00 713.00 684.77 713.00 684.50 C 713.00 684.23 713.00 683.33 713.00 681.00 Z" fill-rule="evenodd"/>
	<path fill="#FF000001" d="M 713.00 697.00 C 713.77 699.33 713.77 700.67 713.50 701.50 C 713.23 702.33 713.00 703.00 713.00 703.00 L 713.00 703.00 L 713.00 703.00 C 713.00 703.00 713.00 702.77 713.00 702.50 C 713.00 702.23 713.00 700.88 713.00 697.00 Z" fill-rule="evenodd"/>
	<path fill="#FF000001" d="M 527.00 703.00 L 527.00 703.00 C 527.00 703.00 527.00 703.90 527.00 705.00 C 527.00 706.10 526.77 707.00 526.00 707.00 C 526.00 703.90 526.23 703.00 526.50 703.00 C 526.77 703.00 527.00 703.00 527.00 703.00 L 527.00 703.00 Z" fill-rule="evenodd"/>
	<path fill="#FF000001" d="M 497.00 714.00 C 497.77 714.00 497.77 714.90 497.50 716.00 C 497.23 717.10 497.00 718.00 497.00 718.00 L 497.00 718.00 L 497.00 718.00 C 497.00 718.00 497.00 717.77 497.00 717.50 C 497.00 717.23 497.00 716.33 497.00 714.00 Z" fill-rule="evenodd"/>
	<path fill="#FF000001" d="M 527.00 722.00 L 527.00 722.00 C 527.00 722.00 527.00 722.45 527.00 723.00 C 527.00 723.55 526.77 724.00 526.00 724.00 C 526.00 722.45 526.23 722.00 526.50 722.00 C 526.77 722.00 527.00 722.00 527.00 722.00 L 527.00 722.00 Z" fill-rule="evenodd"/>
	<path fill="#FF000001" d="M 526.00 725.00 L 526.00 725.00 C 526.00 725.00 526.23 725.00 526.50 725.00 C 526.77 725.00 527.00 725.45 527.00 727.00 C 526.23 727.00 526.00 726.55 526.00 726.00 C 526.00 725.45 526.00 725.00 526.00 725.00 L 526.00 725.00 Z" fill-rule="evenodd"/>
	<path fill="#FF000001" d="M 527.00 728.00 L 527.00 728.00 C 527.00 728.00 527.00 728.23 527.00 728.50 C 527.00 728.77 527.00 729.45 527.00 731.00 C 526.23 728.67 526.23 728.00 526.50 728.00 C 526.77 728.00 527.00 728.00 527.00 728.00 L 527.00 728.00 Z" fill-rule="evenodd"/>
	<path fill="#FF000001" d="M 527.00 738.00 L 527.00 738.00 C 527.00 738.00 527.00 738.23 527.00 738.50 C 527.00 738.77 527.00 739.45 527.00 741.00 C 526.23 738.67 526.23 738.00 526.50 738.00 C 526.77 738.00 527.00 738.00 527.00 738.00 L 527.00 738.00 Z" fill-rule="evenodd"/>
	<path fill="#FF000002" d="M 497.00 740.00 C 497.77 740.00 497.77 740.90 497.50 742.00 C 497.23 743.10 497.00 744.00 497.00 744.00 L 497.00 744.00 L 497.00 744.00 C 497.00 744.00 497.00 743.77 497.00 743.50 C 497.00 743.23 497.00 742.33 497.00 740.00 Z" fill-rule="evenodd"/>
	<path fill="#FF000001" d="M 497.00 753.00 C 497.77 753.00 497.77 753.90 497.50 755.00 C 497.23 756.10 497.00 757.00 497.00 757.00 L 497.00 757.00 L 497.00 757.00 C 497.00 757.00 497.00 756.77 497.00 756.50 C 497.00 756.23 497.00 755.33 497.00 753.00 Z" fill-rule="evenodd"/>
	<path fill="#DB00006B" d="M 526.00 775.00 L 526.00 775.00 C 526.00 775.00 526.45 775.23 527.00 775.50 C 527.55 775.77 527.77 777.35 527.00 782.00 C 526.23 782.00 526.00 780.42 526.00 778.50 C 526.00 776.58 526.00 775.00 526.00 775.00 L 526.00 775.00 Z" fill-rule="evenodd"/>
	<path fill="#FF000001" d="M 527.00 785.00 L 527.00 785.00 C 527.00 785.00 527.00 785.23 527.00 785.50 C 527.00 785.77 527.00 786.67 527.00 789.00 C 526.23 789.00 526.23 788.10 526.50 787.00 C 526.77 785.90 527.00 785.00 527.00 785.00 L 527.00 785.00 Z" fill-rule="evenodd"/>
	<path fill="#FF000001" d="M 527.00 790.00 L 527.00 790.00 C 527.00 790.00 527.00 790.23 527.00 790.50 C 527.00 790.77 527.00 792.80 527.00 799.00 C 526.23 795.12 526.23 793.10 526.50 792.00 C 526.77 790.90 527.00 790.00 527.00 790.00 L 527.00 790.00 Z" fill-rule="evenodd"/>
	<path fill="#FF000001" d="M 527.00 804.00 L 527.00 804.00 C 527.00 804.00 527.00 804.23 527.00 804.50 C 527.00 804.77 527.00 805.67 527.00 808.00 C 526.23 808.00 526.23 807.10 526.50 806.00 C 526.77 804.90 527.00 804.00 527.00 804.00 L 527.00 804.00 Z" fill-rule="evenodd"/>
	<path fill="#FF000001" d="M 497.00 817.00 C 497.77 817.00 497.77 817.90 497.50 819.00 C 497.23 820.10 497.00 821.00 497.00 821.00 L 497.00 821.00 L 497.00 821.00 C 497.00 821.00 497.00 820.77 497.00 820.50 C 497.00 820.23 497.00 819.33 497.00 817.00 Z" fill-rule="evenodd"/>
</svg>
