<svg xmlns="http://www.w3.org/2000/svg" xmlns:xlink="http://www.w3.org/1999/xlink" width="4096" zoomAndPan="magnify" viewBox="0 0 3072 767.999994" height="1024" preserveAspectRatio="xMidYMid meet" version="1.0"><defs><g/></defs><g fill="#e0e0e0" fill-opacity="1"><g transform="translate(1202.713897, 539.697987)"><g><path d="M 13.796875 -130.171875 C 13.796875 -155.535156 19.703125 -178.289062 31.515625 -198.4375 C 43.328125 -218.582031 59.363281 -234.3125 79.625 -245.625 C 99.894531 -256.9375 122.09375 -262.59375 146.21875 -262.59375 C 173.820312 -262.59375 198.375 -255.816406 219.875 -242.265625 C 241.382812 -228.710938 256.988281 -209.503906 266.6875 -184.640625 L 215.59375 -184.640625 C 208.875 -198.316406 199.546875 -208.507812 187.609375 -215.21875 C 175.679688 -221.9375 161.882812 -225.296875 146.21875 -225.296875 C 129.0625 -225.296875 113.765625 -221.441406 100.328125 -213.734375 C 86.898438 -206.023438 76.394531 -194.957031 68.8125 -180.53125 C 61.226562 -166.101562 57.4375 -149.316406 57.4375 -130.171875 C 57.4375 -111.023438 61.226562 -94.238281 68.8125 -79.8125 C 76.394531 -65.394531 86.898438 -54.269531 100.328125 -46.4375 C 113.765625 -38.601562 129.0625 -34.6875 146.21875 -34.6875 C 161.882812 -34.6875 175.679688 -38.039062 187.609375 -44.75 C 199.546875 -51.46875 208.875 -61.664062 215.59375 -75.34375 L 266.6875 -75.34375 C 256.988281 -50.476562 241.382812 -31.332031 219.875 -17.90625 C 198.375 -4.476562 173.820312 2.234375 146.21875 2.234375 C 121.84375 2.234375 99.582031 -3.421875 79.4375 -14.734375 C 59.300781 -26.046875 43.328125 -41.769531 31.515625 -61.90625 C 19.703125 -82.050781 13.796875 -104.804688 13.796875 -130.171875 Z M 13.796875 -130.171875 "/></g></g></g><g fill="#e0e0e0" fill-opacity="1"><g transform="translate(1467.919817, 539.697987)"><g><path d="M 70.5 -276.015625 L 70.5 0 L 27.96875 0 L 27.96875 -276.015625 Z M 70.5 -276.015625 "/></g></g></g><g fill="#e0e0e0" fill-opacity="1"><g transform="translate(1543.266523, 539.697987)"><g><path d="M 117.125 3.359375 C 97.726562 3.359375 80.195312 -1.050781 64.53125 -9.875 C 48.863281 -18.707031 36.550781 -31.144531 27.59375 -47.1875 C 18.644531 -63.226562 14.171875 -81.816406 14.171875 -102.953125 C 14.171875 -123.835938 18.769531 -142.359375 27.96875 -158.515625 C 37.175781 -174.679688 49.734375 -187.113281 65.640625 -195.8125 C 81.554688 -204.519531 99.335938 -208.875 118.984375 -208.875 C 138.628906 -208.875 156.410156 -204.519531 172.328125 -195.8125 C 188.242188 -187.113281 200.800781 -174.679688 210 -158.515625 C 219.195312 -142.359375 223.796875 -123.835938 223.796875 -102.953125 C 223.796875 -82.054688 219.070312 -63.523438 209.625 -47.359375 C 200.175781 -31.203125 187.304688 -18.707031 171.015625 -9.875 C 154.734375 -1.050781 136.769531 3.359375 117.125 3.359375 Z M 117.125 -33.5625 C 128.0625 -33.5625 138.316406 -36.171875 147.890625 -41.390625 C 157.460938 -46.617188 165.234375 -54.453125 171.203125 -64.890625 C 177.171875 -75.335938 180.15625 -88.023438 180.15625 -102.953125 C 180.15625 -117.867188 177.296875 -130.484375 171.578125 -140.796875 C 165.859375 -151.117188 158.273438 -158.890625 148.828125 -164.109375 C 139.378906 -169.335938 129.179688 -171.953125 118.234375 -171.953125 C 107.296875 -171.953125 97.164062 -169.335938 87.84375 -164.109375 C 78.519531 -158.890625 71.117188 -151.117188 65.640625 -140.796875 C 60.171875 -130.484375 57.4375 -117.867188 57.4375 -102.953125 C 57.4375 -80.816406 63.09375 -63.71875 74.40625 -51.65625 C 85.726562 -39.59375 99.96875 -33.5625 117.125 -33.5625 Z M 117.125 -33.5625 "/></g></g></g><g fill="#e0e0e0" fill-opacity="1"><g transform="translate(1758.116882, 539.697987)"><g><path d="M 214.109375 -205.515625 L 214.109375 0 L 171.578125 0 L 171.578125 -24.25 C 164.867188 -15.789062 156.101562 -9.132812 145.28125 -4.28125 C 134.46875 0.5625 122.96875 2.984375 110.78125 2.984375 C 94.613281 2.984375 80.125 -0.367188 67.3125 -7.078125 C 54.507812 -13.796875 44.441406 -23.742188 37.109375 -36.921875 C 29.773438 -50.109375 26.109375 -66.023438 26.109375 -84.671875 L 26.109375 -205.515625 L 68.265625 -205.515625 L 68.265625 -91.015625 C 68.265625 -72.609375 72.863281 -58.492188 82.0625 -48.671875 C 91.257812 -38.847656 103.816406 -33.9375 119.734375 -33.9375 C 135.648438 -33.9375 148.269531 -38.847656 157.59375 -48.671875 C 166.914062 -58.492188 171.578125 -72.609375 171.578125 -91.015625 L 171.578125 -205.515625 Z M 214.109375 -205.515625 "/></g></g></g><g fill="#e0e0e0" fill-opacity="1"><g transform="translate(1977.070364, 539.697987)"><g><path d="M 13.796875 -103.6875 C 13.796875 -124.332031 18.082031 -142.609375 26.65625 -158.515625 C 35.238281 -174.429688 46.925781 -186.800781 61.71875 -195.625 C 76.519531 -204.457031 93 -208.875 111.15625 -208.875 C 124.582031 -208.875 137.820312 -205.953125 150.875 -200.109375 C 163.9375 -194.265625 174.320312 -186.492188 182.03125 -176.796875 L 182.03125 -276.015625 L 224.921875 -276.015625 L 224.921875 0 L 182.03125 0 L 182.03125 -30.953125 C 175.0625 -21.003906 165.421875 -12.796875 153.109375 -6.328125 C 140.804688 0.128906 126.695312 3.359375 110.78125 3.359375 C 92.875 3.359375 76.519531 -1.175781 61.71875 -10.25 C 46.925781 -19.332031 35.238281 -32.015625 26.65625 -48.296875 C 18.082031 -64.585938 13.796875 -83.050781 13.796875 -103.6875 Z M 182.03125 -102.953125 C 182.03125 -117.117188 179.109375 -129.425781 173.265625 -139.875 C 167.421875 -150.320312 159.769531 -158.28125 150.3125 -163.75 C 140.863281 -169.21875 130.671875 -171.953125 119.734375 -171.953125 C 108.796875 -171.953125 98.597656 -169.273438 89.140625 -163.921875 C 79.691406 -158.578125 72.046875 -150.742188 66.203125 -140.421875 C 60.359375 -130.109375 57.4375 -117.863281 57.4375 -103.6875 C 57.4375 -89.519531 60.359375 -77.085938 66.203125 -66.390625 C 72.046875 -55.703125 79.753906 -47.554688 89.328125 -41.953125 C 98.898438 -36.359375 109.035156 -33.5625 119.734375 -33.5625 C 130.671875 -33.5625 140.863281 -36.296875 150.3125 -41.765625 C 159.769531 -47.242188 167.421875 -55.265625 173.265625 -65.828125 C 179.109375 -76.398438 182.03125 -88.773438 182.03125 -102.953125 Z M 182.03125 -102.953125 "/></g></g></g><g fill="#fd3f31" fill-opacity="1"><g transform="translate(2206.846664, 539.697987)"><g><path d="M 181.65625 -134.28125 C 196.820312 -131.050781 209.003906 -123.53125 218.203125 -111.71875 C 227.398438 -99.90625 232 -86.414062 232 -71.25 C 232 -49.363281 224.351562 -32.015625 209.0625 -19.203125 C 193.769531 -6.398438 172.445312 0 145.09375 0 L 23.125 0 L 23.125 -261.84375 L 141 -261.84375 C 167.601562 -261.84375 188.425781 -255.75 203.46875 -243.5625 C 218.507812 -231.382812 226.03125 -214.847656 226.03125 -193.953125 C 226.03125 -178.535156 221.988281 -165.726562 213.90625 -155.53125 C 205.832031 -145.34375 195.082031 -138.257812 181.65625 -134.28125 Z M 86.90625 -155.90625 L 128.6875 -155.90625 C 139.125 -155.90625 147.140625 -158.207031 152.734375 -162.8125 C 158.335938 -167.414062 161.140625 -174.191406 161.140625 -183.140625 C 161.140625 -192.097656 158.335938 -198.9375 152.734375 -203.65625 C 147.140625 -208.382812 139.125 -210.75 128.6875 -210.75 L 86.90625 -210.75 Z M 133.90625 -51.46875 C 144.601562 -51.46875 152.875 -53.890625 158.71875 -58.734375 C 164.5625 -63.585938 167.484375 -70.617188 167.484375 -79.828125 C 167.484375 -89.023438 164.4375 -96.234375 158.34375 -101.453125 C 152.25 -106.671875 143.851562 -109.28125 133.15625 -109.28125 L 86.90625 -109.28125 L 86.90625 -51.46875 Z M 133.90625 -51.46875 "/></g></g></g><g fill="#fd3f31" fill-opacity="1"><g transform="translate(2429.530165, 539.697987)"><g><path d="M 117.875 2.984375 C 97.476562 2.984375 79.132812 -1.363281 62.84375 -10.0625 C 46.5625 -18.769531 33.753906 -31.203125 24.421875 -47.359375 C 15.097656 -63.523438 10.4375 -82.425781 10.4375 -104.0625 C 10.4375 -125.445312 15.160156 -144.285156 24.609375 -160.578125 C 34.066406 -176.867188 47 -189.363281 63.40625 -198.0625 C 79.820312 -206.769531 98.222656 -211.125 118.609375 -211.125 C 139.003906 -211.125 157.40625 -206.769531 173.8125 -198.0625 C 190.226562 -189.363281 203.160156 -176.867188 212.609375 -160.578125 C 222.054688 -144.285156 226.78125 -125.445312 226.78125 -104.0625 C 226.78125 -82.675781 221.992188 -63.835938 212.421875 -47.546875 C 202.847656 -31.265625 189.789062 -18.769531 173.25 -10.0625 C 156.71875 -1.363281 138.257812 2.984375 117.875 2.984375 Z M 117.875 -52.21875 C 130.050781 -52.21875 140.425781 -56.691406 149 -65.640625 C 157.582031 -74.597656 161.875 -87.40625 161.875 -104.0625 C 161.875 -120.726562 157.707031 -133.535156 149.375 -142.484375 C 141.050781 -151.429688 130.796875 -155.90625 118.609375 -155.90625 C 106.179688 -155.90625 95.863281 -151.492188 87.65625 -142.671875 C 79.445312 -133.847656 75.34375 -120.976562 75.34375 -104.0625 C 75.34375 -87.40625 79.382812 -74.597656 87.46875 -65.640625 C 95.550781 -56.691406 105.6875 -52.21875 117.875 -52.21875 Z M 117.875 -52.21875 "/></g></g></g><g fill="#fd3f31" fill-opacity="1"><g transform="translate(2644.00752, 539.697987)"><g><path d="M 146.21875 0 L 106.3125 -57.8125 L 72.734375 0 L 3.734375 0 L 72.359375 -106.3125 L 1.859375 -208.140625 L 73.484375 -208.140625 L 113.390625 -150.6875 L 146.96875 -208.140625 L 215.96875 -208.140625 L 146.21875 -103.328125 L 217.828125 0 Z M 146.21875 0 "/></g></g></g><path stroke-linecap="butt" transform="matrix(0.749935, 0, 0, 0.749935, -1.500118, -240.499041)" fill="none" stroke-linejoin="miter" d="M 809.570611 667.265166 C 809.570611 667.265166 809.935226 735.56799 810.362346 819.059636 C 810.789467 902.546073 810.789467 973.698103 809.570611 983.50104 " stroke="#f23329" stroke-width="1" stroke-opacity="0.9961" stroke-miterlimit="4"/><path stroke-linecap="butt" transform="matrix(0.749935, 0, 0, 0.749935, -1.500118, -240.499041)" fill="none" stroke-linejoin="miter" d="M 382.648041 700.465974 C 382.648041 700.465974 382.648041 700.83059 382.648041 701.25771 C 382.648041 701.684831 382.648041 703.122456 382.648041 706.794651 " stroke="#ff0000" stroke-width="1" stroke-opacity="0.0039" stroke-miterlimit="4"/><path stroke-linecap="butt" transform="matrix(0.749935, 0, 0, 0.749935, -1.500118, -240.499041)" fill="none" stroke-linejoin="miter" d="M 811.154082 983.50104 C 811.154082 983.50104 811.154082 982.443657 811.154082 981.131042 C 811.154082 979.818428 811.862477 979.120451 812.732344 979.547571 C 813.602212 979.974692 818.232823 978.203704 823.00928 975.594102 C 827.785738 972.9845 838.458541 967.296504 846.730095 962.947167 C 854.996439 958.59783 878.826638 945.789423 899.698246 934.486355 C 920.569854 923.178079 954.723868 904.681676 975.595476 893.3734 C 996.467084 882.070332 1033.465095 862.146722 1057.816173 849.09871 C 1082.16725 836.055908 1104.226462 823.961105 1111.57606 819.059636 " stroke="#c41d18" stroke-width="1" stroke-opacity="0.9961" stroke-miterlimit="4"/><path stroke-linecap="butt" transform="matrix(0.749935, 0, 0, 0.749935, -1.500118, -240.499041)" fill="none" stroke-linejoin="miter" d="M 499.658224 830.128308 C 499.658224 830.128308 500.731234 828.701101 502.028222 826.961366 C 503.481473 825.034115 506.252548 823.799632 509.143424 823.799632 C 511.784279 823.799632 520.561085 827.310355 528.91077 831.706571 C 537.177114 836.055908 551.756508 843.884715 561.325049 849.09871 C 570.888381 854.317915 584.061402 861.433118 590.577594 864.912588 C 597.088578 868.392057 609.547995 875.158272 618.246669 879.934729 C 626.940134 884.711187 645.092755 894.686014 658.567886 902.072074 C 672.037809 909.452925 688.419443 918.354742 694.935635 921.834212 C 701.446618 925.313681 725.657058 938.471077 748.695521 951.086759 C 771.733985 963.702441 793.787987 975.437838 797.710204 977.177573 C 802.726265 979.406934 804.825406 981.27168 804.825406 983.50104 C 804.825406 985.240775 804.117011 987.376378 801.663673 989.824508 " stroke="#fe3f31" stroke-width="1" stroke-opacity="0.9961" stroke-miterlimit="4"/><path stroke-linecap="butt" transform="matrix(0.749935, 0, 0, 0.749935, -1.500118, -240.499041)" fill="none" stroke-linejoin="miter" d="M 488.589552 980.339307 C 488.589552 980.339307 491.782538 982.110294 495.704755 984.292776 C 499.626971 986.475258 511.00817 992.861231 521.003831 998.523182 C 530.994284 1004.185133 555.553713 1018.050924 575.555454 1029.353992 C 595.557195 1040.662269 619.038405 1053.835291 627.73187 1058.60654 C 636.430543 1063.382997 656.005163 1074.420417 671.21482 1083.119091 C 691.99267 1094.989917 699.868356 1098.740243 706.790833 1097.349497 " stroke="#dc2820" stroke-width="1" stroke-opacity="0.9961" stroke-miterlimit="4"/><path stroke-linecap="butt" transform="matrix(0.749935, 0, 0, 0.749935, -1.500118, -240.499041)" fill="none" stroke-linejoin="miter" d="M 912.34518 1102.089493 C 912.34518 1102.089493 913.407772 1101.724878 914.720387 1101.297758 C 916.033001 1100.875846 923.840972 1096.589014 932.112525 1091.812557 C 940.384078 1087.036099 963.136058 1074.227692 982.710678 1063.351745 C 1002.285299 1052.470589 1040.345902 1031.12498 1067.306582 1015.915322 C 1094.262053 1000.705664 1118.821482 987.183653 1127.389936 983.50104 " stroke="#bc1c18" stroke-width="1" stroke-opacity="0.9961" stroke-miterlimit="4"/><path stroke-linecap="butt" transform="matrix(0.749935, 0, 0, 0.749935, -1.500118, -240.499041)" fill="none" stroke-linejoin="miter" d="M 491.751286 996.153184 C 491.751286 996.153184 492.115901 997.575183 492.543021 999.314918 C 492.970142 1001.054653 492.970142 1004.247639 491.751286 1010.38359 " stroke="#e80000" stroke-width="1" stroke-opacity="0.4157" stroke-miterlimit="4"/><path stroke-linecap="butt" transform="matrix(0.749935, 0, 0, 0.749935, -1.500118, -240.499041)" fill="none" stroke-linejoin="miter" d="M 491.751286 1013.545324 C 491.751286 1013.545324 491.751286 1013.909939 491.751286 1014.337059 C 491.751286 1014.76418 491.751286 1015.83719 491.751286 1018.28532 " stroke="#ff0000" stroke-width="1" stroke-opacity="0.0039" stroke-miterlimit="4"/><path stroke-linecap="butt" transform="matrix(0.749935, 0, 0, 0.749935, -1.500118, -240.499041)" fill="none" stroke-linejoin="miter" d="M 491.751286 1023.030525 C 491.751286 1023.030525 502.059474 1028.723729 514.680365 1035.682668 C 527.296046 1042.636399 563.585662 1062.924624 595.31759 1080.743884 C 627.054727 1098.563144 666.552956 1120.986972 683.075227 1130.550305 C 710.379687 1146.364182 713.827904 1147.947654 721.021238 1147.947654 C 727.219694 1147.947654 731.490899 1146.567325 740.788583 1141.618978 C 747.304775 1138.139508 760.128808 1131.024305 785.855005 1116.319899 " stroke="#f43329" stroke-width="1" stroke-opacity="0.9961" stroke-miterlimit="4"/><path stroke-linecap="butt" transform="matrix(0.749935, 0, 0, 0.749935, -1.500118, -240.499041)" fill="none" stroke-linejoin="miter" d="M 1114.737793 1036.469195 C 1114.737793 1036.042075 1116.165001 1036.391063 1117.904735 1037.260931 C 1120.748733 1038.68293 1120.368491 1039.156929 1106.836064 1045.167869 L 1110.789533 1041.2144 C 1112.972014 1039.031918 1114.737793 1036.896316 1114.737793 1036.469195 " stroke="#a41614" stroke-width="1" stroke-opacity="1" stroke-miterlimit="4"/><path stroke-linecap="butt" transform="matrix(0.749935, 0, 0, 0.749935, -1.500118, -240.499041)" fill="none" stroke-linejoin="miter" d="M 833.286216 1075.212153 C 833.286216 1075.212153 833.650831 1076.634151 834.077952 1078.373886 C 834.505072 1080.113621 834.505072 1083.671223 833.286216 1091.020821 " stroke="#cb0000" stroke-width="1" stroke-opacity="0.3882" stroke-miterlimit="4"/><path stroke-linecap="butt" transform="matrix(0.749935, 0, 0, 0.749935, -1.500118, -240.499041)" fill="none" stroke-linejoin="miter" d="M 1127.389936 1083.119091 C 1127.389936 1083.119091 1127.389936 1082.754476 1127.389936 1082.327356 C 1127.389936 1081.900235 1127.389936 1080.478236 1127.389936 1076.790415 " stroke="#ff0000" stroke-width="1" stroke-opacity="0.0039" stroke-miterlimit="4"/><path stroke-linecap="butt" transform="matrix(0.749935, 0, 0, 0.749935, -1.500118, -240.499041)" fill="none" stroke-linejoin="miter" d="M 1127.389936 1111.579903 C 1127.389936 1111.579903 1127.389936 1111.215288 1127.389936 1110.788167 C 1127.389936 1110.361047 1127.389936 1108.225444 1127.389936 1102.089493 " stroke="#ff0000" stroke-width="1" stroke-opacity="0.0039" stroke-miterlimit="4"/><path stroke-linecap="butt" transform="matrix(0.749935, 0, 0, 0.749935, -1.500118, -240.499041)" fill="none" stroke-linejoin="miter" d="M 833.286216 1111.579903 C 833.286216 1111.579903 833.286216 1113.001902 833.286216 1114.741637 C 833.286216 1116.481372 832.92681 1117.90337 831.707954 1117.90337 " stroke="#ff0000" stroke-width="1" stroke-opacity="0.0039" stroke-miterlimit="4"/><path stroke-linecap="butt" transform="matrix(0.749935, 0, 0, 0.749935, -1.500118, -240.499041)" fill="none" stroke-linejoin="miter" d="M 785.855005 1135.29551 C 785.855005 1135.29551 785.855005 1134.930895 785.855005 1134.503775 C 785.855005 1134.076654 785.855005 1132.654655 785.855005 1128.972043 " stroke="#ff0000" stroke-width="1" stroke-opacity="0.0039" stroke-miterlimit="4"/><path stroke-linecap="butt" transform="matrix(0.749935, 0, 0, 0.749935, -1.500118, -240.499041)" fill="none" stroke-linejoin="miter" d="M 833.286216 1141.618978 C 833.286216 1141.618978 833.286216 1142.332581 833.286216 1143.202449 C 833.286216 1144.072316 832.92681 1144.780711 831.707954 1144.780711 " stroke="#ff0000" stroke-width="1" stroke-opacity="0.0039" stroke-miterlimit="4"/><path stroke-linecap="butt" transform="matrix(0.749935, 0, 0, 0.749935, -1.500118, -240.499041)" fill="none" stroke-linejoin="miter" d="M 831.707954 1146.364182 C 831.707954 1146.364182 832.072569 1146.364182 832.49969 1146.364182 C 832.92681 1146.364182 833.286216 1147.077786 833.286216 1149.525916 " stroke="#ff0000" stroke-width="1" stroke-opacity="0.0039" stroke-miterlimit="4"/><path stroke-linecap="butt" transform="matrix(0.749935, 0, 0, 0.749935, -1.500118, -240.499041)" fill="none" stroke-linejoin="miter" d="M 833.286216 1151.109387 C 833.286216 1151.109387 833.286216 1151.474002 833.286216 1151.895914 C 833.286216 1152.323035 833.286216 1153.401254 833.286216 1155.849384 " stroke="#ff0000" stroke-width="1" stroke-opacity="0.0039" stroke-miterlimit="4"/><path stroke-linecap="butt" transform="matrix(0.749935, 0, 0, 0.749935, -1.500118, -240.499041)" fill="none" stroke-linejoin="miter" d="M 833.286216 1166.918056 C 833.286216 1166.918056 833.286216 1167.282671 833.286216 1167.709791 C 833.286216 1168.136912 833.286216 1169.209922 833.286216 1171.663261 " stroke="#ff0000" stroke-width="1" stroke-opacity="0.0039" stroke-miterlimit="4"/><path stroke-linecap="butt" transform="matrix(0.749935, 0, 0, 0.749935, -1.500118, -240.499041)" fill="none" stroke-linejoin="miter" d="M 785.855005 1176.408466 C 785.855005 1176.408466 785.855005 1176.043851 785.855005 1175.61673 C 785.855005 1175.18961 785.855005 1173.767611 785.855005 1170.07979 " stroke="#ff0000" stroke-width="1" stroke-opacity="0.0078" stroke-miterlimit="4"/><path stroke-linecap="butt" transform="matrix(0.749935, 0, 0, 0.749935, -1.500118, -240.499041)" fill="none" stroke-linejoin="miter" d="M 785.855005 1196.962339 C 785.855005 1196.962339 785.855005 1196.597724 785.855005 1196.170603 C 785.855005 1195.743483 785.855005 1194.321484 785.855005 1190.638872 " stroke="#ff0000" stroke-width="1" stroke-opacity="0.0039" stroke-miterlimit="4"/><path stroke-linecap="butt" transform="matrix(0.749935, 0, 0, 0.749935, -1.500118, -240.499041)" fill="none" stroke-linejoin="miter" d="M 831.707954 1225.423151 C 831.707954 1225.423151 832.416349 1225.787766 833.286216 1226.214887 C 834.156084 1226.642007 834.505072 1229.137016 833.286216 1236.491823 " stroke="#db0000" stroke-width="1" stroke-opacity="0.4196" stroke-miterlimit="4"/><path stroke-linecap="butt" transform="matrix(0.749935, 0, 0, 0.749935, -1.500118, -240.499041)" fill="none" stroke-linejoin="miter" d="M 833.286216 1241.237028 C 833.286216 1241.237028 833.286216 1241.601643 833.286216 1242.028764 C 833.286216 1242.450676 833.286216 1243.877883 833.286216 1247.560496 " stroke="#ff0000" stroke-width="1" stroke-opacity="0.0039" stroke-miterlimit="4"/><path stroke-linecap="butt" transform="matrix(0.749935, 0, 0, 0.749935, -1.500118, -240.499041)" fill="none" stroke-linejoin="miter" d="M 833.286216 1249.143967 C 833.286216 1249.143967 833.286216 1249.503373 833.286216 1249.930494 C 833.286216 1250.357614 833.286216 1253.571436 833.286216 1263.374373 " stroke="#ff0000" stroke-width="1" stroke-opacity="0.0039" stroke-miterlimit="4"/><path stroke-linecap="butt" transform="matrix(0.749935, 0, 0, 0.749935, -1.500118, -240.499041)" fill="none" stroke-linejoin="miter" d="M 833.286216 1271.276103 C 833.286216 1271.276103 833.286216 1271.640718 833.286216 1272.067838 C 833.286216 1272.494959 833.286216 1273.916958 833.286216 1277.604779 " stroke="#ff0000" stroke-width="1" stroke-opacity="0.0039" stroke-miterlimit="4"/><path stroke-linecap="butt" transform="matrix(0.749935, 0, 0, 0.749935, -1.500118, -240.499041)" fill="none" stroke-linejoin="miter" d="M 785.855005 1298.158652 C 785.855005 1298.158652 785.855005 1297.794037 785.855005 1297.366917 C 785.855005 1296.939796 785.855005 1295.517797 785.855005 1291.835185 " stroke="#ff0000" stroke-width="1" stroke-opacity="0.0039" stroke-miterlimit="4"/><path fill="#fe3e30" d="M 285.460938 289.550781 C 285.460938 286.796875 285.460938 285.71875 285.460938 285.398438 C 285.460938 285.078125 285.460938 284.804688 285.460938 284.804688 C 286.386719 271.027344 287.453125 263.546875 288.425781 259.3125 C 289.398438 255.078125 292.339844 245.996094 294.949219 239.152344 C 297.816406 231.625 302.5 222.480469 306.804688 216.03125 C 310.753906 210.101562 319.183594 200.09375 325.777344 193.5 C 332.300781 186.976562 341.644531 178.972656 346.53125 175.714844 C 351.414062 172.453125 361.03125 167.648438 367.875 165.042969 C 374.714844 162.433594 384.855469 159.492188 390.402344 158.519531 C 397.636719 157.238281 405.332031 156.90625 417.675781 157.332031 L 434.871094 157.925781 C 439.472656 141.386719 443.46875 131.519531 446.730469 125.316406 C 449.988281 119.117188 456.132812 108.988281 460.367188 102.789062 C 464.730469 96.417969 473.742188 85.855469 481.117188 78.480469 C 488.289062 71.304688 498.167969 62.507812 503.054688 58.914062 C 507.9375 55.320312 516.476562 49.984375 522.027344 47.054688 C 527.574219 44.125 535.839844 40.117188 540.40625 38.160156 C 544.972656 36.207031 553.238281 33.277344 558.785156 31.640625 C 564.335938 30.003906 574.203125 27.867188 580.722656 26.898438 C 587.246094 25.925781 598.191406 25.117188 605.03125 25.117188 C 611.875 25.117188 622.546875 25.925781 628.746094 26.898438 C 634.949219 27.867188 645.621094 30.277344 652.464844 32.234375 C 659.304688 34.1875 670.523438 38.457031 677.363281 41.71875 C 684.207031 44.980469 695.152344 51.121094 701.675781 55.355469 C 710.105469 60.835938 717.992188 67.523438 728.945312 78.480469 C 740.601562 90.136719 746.53125 97.214844 753.253906 107.53125 C 758.140625 115.023438 764.285156 125.695312 766.890625 131.246094 C 769.5 136.796875 772.703125 145.0625 774.007812 149.625 L 776.378906 157.925781 C 815.117188 157.925781 820.820312 158.367188 828.554688 160.296875 C 833.769531 161.601562 843.101562 165.066406 849.304688 168.007812 C 855.507812 170.945312 863.769531 175.476562 867.683594 178.085938 C 871.597656 180.695312 879.601562 187.628906 885.472656 193.5 C 891.339844 199.371094 899.085938 208.703125 902.664062 214.25 C 906.246094 219.800781 911.0625 228.339844 913.335938 233.222656 C 915.613281 238.109375 918.816406 246.648438 920.453125 252.195312 C 922.089844 257.746094 923.949219 267.886719 924.601562 274.726562 C 925.398438 283.027344 925.398438 291.125 924.601562 299.035156 C 923.949219 305.558594 922.089844 315.421875 920.453125 320.972656 C 918.816406 326.523438 915.351562 335.320312 912.746094 340.539062 C 910.136719 345.757812 905.605469 353.761719 902.664062 358.324219 C 899.726562 362.890625 893.058594 370.632812 887.84375 375.519531 L 878.355469 384.414062 C 863.652344 359.59375 857.511719 350.796875 855.234375 348.839844 C 852.957031 346.882812 843.351562 341.273438 833.890625 336.386719 C 824.425781 331.503906 810.566406 324.292969 803.058594 320.378906 C 795.554688 316.46875 766.75 301.527344 739.027344 287.179688 C 711.300781 272.828125 676.628906 255.222656 661.949219 248.046875 C 647.269531 240.871094 632.066406 233.675781 628.15625 232.039062 C 624.242188 230.402344 619.4375 228.539062 617.484375 227.886719 C 615.527344 227.234375 609.917969 226.703125 605.03125 226.703125 C 600.144531 226.703125 593.46875 227.507812 590.210938 228.480469 C 586.949219 229.453125 566.671875 239.070312 545.148438 249.824219 C 523.628906 260.582031 502.011719 271.523438 497.125 274.132812 C 492.238281 276.742188 475.957031 285.28125 460.957031 293.105469 C 445.957031 300.933594 430.484375 308.9375 426.570312 310.894531 C 422.65625 312.851562 406.386719 321.386719 390.402344 329.867188 C 374.417969 338.34375 359.21875 346.882812 356.609375 348.839844 C 353.289062 351.328125 349.019531 357.199219 342.378906 368.40625 C 337.160156 377.203125 332.359375 384.414062 331.707031 384.414062 C 331.054688 384.414062 325.71875 379.347656 319.847656 373.148438 C 313.160156 366.09375 307.183594 358.335938 303.839844 352.394531 C 300.914062 347.179688 296.902344 339.175781 294.949219 334.609375 C 292.992188 330.042969 290.324219 322.039062 289.019531 316.824219 C 287.714844 311.605469 286.386719 303.328125 286.054688 298.441406 C 285.722656 293.558594 285.460938 289.550781 285.460938 289.550781 Z M 285.460938 289.550781 " fill-opacity="0.9961" fill-rule="evenodd"/><path fill="#d8251d" d="M 832.109375 373.742188 C 826.597656 377.417969 810.054688 386.488281 791.792969 396.269531 C 773.53125 406.054688 745.785156 420.996094 730.132812 429.472656 C 714.480469 437.949219 688.867188 451.824219 673.214844 460.304688 C 657.5625 468.78125 639.691406 478.386719 633.492188 481.648438 C 627.289062 484.910156 619.285156 489.175781 615.703125 491.132812 C 612.121094 493.089844 608.648438 494.417969 607.996094 494.097656 C 607.34375 493.777344 606.8125 494.300781 606.8125 495.285156 C 606.8125 496.269531 606.8125 497.0625 606.8125 497.0625 C 605.898438 497.0625 605.625 497.0625 605.625 497.0625 C 606.539062 489.710938 606.539062 436.351562 606.21875 373.742188 C 605.898438 311.128906 605.625 259.90625 605.625 259.90625 C 606.539062 258.992188 609.75 259.523438 613.332031 260.496094 C 616.914062 261.46875 621.183594 263.082031 622.820312 264.054688 C 624.457031 265.027344 640.191406 273.304688 657.800781 282.433594 C 675.410156 291.566406 693.277344 300.898438 697.523438 303.1875 C 701.769531 305.472656 719.636719 314.808594 737.246094 323.9375 C 754.855469 333.066406 783.398438 348.007812 800.6875 357.140625 C 817.976562 366.269531 832.109375 373.742188 832.109375 373.742188 Z M 832.109375 373.742188 " fill-opacity="0.9961" fill-rule="evenodd"/><path fill="#f23329" d="M 605.625 259.90625 C 605.625 259.90625 605.898438 311.128906 606.21875 373.742188 C 606.539062 436.351562 606.539062 489.710938 605.625 497.0625 C 601.949219 499.824219 600.609375 500.894531 600.289062 501.214844 C 599.96875 501.535156 599.695312 501.804688 599.695312 501.804688 C 601.535156 499.96875 602.066406 498.367188 602.066406 497.0625 C 602.066406 495.390625 600.492188 493.992188 596.730469 492.320312 C 593.789062 491.015625 577.25 482.214844 559.972656 472.753906 C 542.695312 463.292969 524.539062 453.425781 519.65625 450.816406 C 514.769531 448.207031 502.484375 441.53125 492.382812 435.996094 C 482.277344 430.457031 468.664062 422.972656 462.144531 419.394531 C 455.621094 415.8125 446.277344 410.738281 441.394531 408.128906 C 436.507812 405.519531 426.628906 400.183594 419.457031 396.269531 C 412.28125 392.359375 401.347656 386.488281 395.148438 383.226562 C 388.886719 379.929688 382.304688 377.296875 380.324219 377.296875 C 378.15625 377.296875 376.078125 378.222656 374.988281 379.667969 C 374.015625 380.972656 373.210938 382.042969 373.210938 382.042969 C 380.65625 373.527344 389.429688 368.40625 420.046875 352.394531 C 441.25 341.308594 463.648438 329.570312 469.851562 326.308594 C 476.054688 323.046875 488.847656 316.371094 498.3125 311.488281 C 507.773438 306.601562 532.839844 293.523438 554.042969 282.433594 C 575.246094 271.347656 593.910156 261.742188 595.546875 261.089844 C 597.183594 260.4375 600.109375 259.90625 602.066406 259.90625 C 604.023438 259.90625 605.625 259.90625 605.625 259.90625 Z M 605.625 259.90625 " fill-opacity="0.9961" fill-rule="evenodd"/><path fill="#ff0000" d="M 285.460938 284.804688 C 285.460938 284.804688 285.460938 285.078125 285.460938 285.398438 C 285.460938 285.71875 285.460938 286.796875 285.460938 289.550781 C 284.535156 289.550781 284.535156 288.480469 284.867188 287.179688 C 285.199219 285.875 285.460938 284.804688 285.460938 284.804688 Z M 285.460938 284.804688 " fill-opacity="0.0039" fill-rule="evenodd"/><path fill="#c41d18" d="M 832.109375 373.742188 C 834.875 376.503906 846.875 394.632812 860.570312 415.835938 C 874.917969 438.035156 885.96875 456.390625 886.65625 459.117188 C 887.453125 462.285156 887.453125 465.246094 886.65625 468.011719 C 886.003906 470.289062 884.402344 472.957031 883.101562 473.941406 C 881.796875 474.925781 872.453125 480.519531 862.347656 486.390625 C 852.246094 492.261719 843.96875 497.0625 843.96875 497.0625 C 837.542969 499.824219 819.125 509.964844 798.910156 521.371094 C 778.691406 532.777344 750.148438 548.785156 735.46875 556.945312 C 720.789062 565.101562 703.726562 574.707031 697.523438 578.289062 C 691.320312 581.871094 685.464844 585.085938 684.480469 585.402344 C 683.496094 585.722656 682.703125 585.996094 682.703125 585.996094 C 682.703125 584.160156 678.160156 578.5625 672.621094 572.359375 C 667.085938 566.160156 656.414062 553.886719 648.90625 545.085938 C 641.398438 536.289062 628.867188 521.871094 621.039062 513.070312 C 613.214844 504.273438 606.8125 497.0625 606.8125 497.0625 C 606.8125 497.0625 606.8125 496.269531 606.8125 495.285156 C 606.8125 494.300781 607.34375 493.777344 607.996094 494.097656 C 608.648438 494.417969 612.121094 493.089844 615.703125 491.132812 C 619.285156 489.175781 627.289062 484.910156 633.492188 481.648438 C 639.691406 478.386719 657.5625 468.78125 673.214844 460.304688 C 688.867188 451.824219 714.480469 437.949219 730.132812 429.472656 C 745.785156 420.996094 773.53125 406.054688 791.792969 396.269531 C 810.054688 386.488281 826.597656 377.417969 832.109375 373.742188 Z M 832.109375 373.742188 " fill-opacity="0.9961" fill-rule="evenodd"/><path fill="#fe3f31" d="M 599.695312 501.804688 C 575.800781 529.375 563.800781 543.25 557.601562 550.421875 C 551.398438 557.597656 542.328125 567.734375 537.441406 572.953125 C 532.554688 578.171875 528.546875 582.441406 528.546875 582.441406 C 523.355469 583.484375 517.449219 580.671875 501.867188 571.769531 C 490.460938 565.246094 475.78125 556.96875 469.257812 553.386719 C 462.738281 549.808594 445.128906 539.929688 430.128906 531.449219 C 415.128906 522.972656 396.710938 512.574219 389.21875 508.328125 C 381.722656 504.082031 373.1875 499.292969 370.246094 497.65625 C 367.304688 496.019531 364.910156 494.691406 364.910156 494.691406 C 335.21875 478.410156 327.460938 473.394531 326.371094 471.566406 C 325.398438 469.933594 324.59375 466.207031 324.59375 463.269531 C 324.59375 458.417969 326.21875 455.382812 342.378906 430.066406 C 352.160156 414.746094 363.105469 397.65625 366.6875 392.121094 C 370.269531 386.582031 373.210938 382.042969 373.210938 382.042969 C 373.210938 382.042969 374.015625 380.972656 374.988281 379.667969 C 376.078125 378.222656 378.15625 377.296875 380.324219 377.296875 C 382.304688 377.296875 388.886719 379.929688 395.148438 383.226562 C 401.347656 386.488281 412.28125 392.359375 419.457031 396.269531 C 426.628906 400.183594 436.507812 405.519531 441.394531 408.128906 C 446.277344 410.738281 455.621094 415.8125 462.144531 419.394531 C 468.664062 422.972656 482.277344 430.457031 492.382812 435.996094 C 502.484375 441.53125 514.769531 448.207031 519.65625 450.816406 C 524.539062 453.425781 542.695312 463.292969 559.972656 472.753906 C 577.25 482.214844 593.789062 491.015625 596.730469 492.320312 C 600.492188 493.992188 602.066406 495.390625 602.066406 497.0625 C 602.066406 498.367188 601.535156 499.96875 599.695312 501.804688 Z M 599.695312 501.804688 " fill-opacity="0.9961" fill-rule="evenodd"/><path fill="#dc2820" d="M 364.910156 494.691406 C 364.910156 494.691406 367.304688 496.019531 370.246094 497.65625 C 373.1875 499.292969 381.722656 504.082031 389.21875 508.328125 C 396.710938 512.574219 415.128906 522.972656 430.128906 531.449219 C 445.128906 539.929688 462.738281 549.808594 469.257812 553.386719 C 475.78125 556.96875 490.460938 565.246094 501.867188 571.769531 C 517.449219 580.671875 523.355469 583.484375 528.546875 582.441406 C 528.546875 585.203125 529.082031 586.53125 529.734375 587.183594 C 530.386719 587.835938 533.054688 588.367188 535.664062 588.367188 C 538.828125 588.367188 542.980469 586.980469 548.113281 584.21875 C 552.347656 581.941406 562.757812 575.800781 571.238281 570.582031 C 579.714844 565.363281 586.925781 561.09375 587.246094 561.09375 C 587.566406 561.09375 587.839844 569.097656 587.839844 578.882812 C 587.839844 588.664062 587.839844 596.667969 587.839844 596.667969 C 568.546875 607.695312 558.929688 613.03125 554.042969 615.640625 C 547.070312 619.351562 543.867188 620.386719 539.21875 620.386719 C 533.824219 620.386719 531.238281 619.199219 510.761719 607.339844 C 498.371094 600.167969 468.75 583.351562 444.949219 569.988281 C 421.152344 556.625 393.9375 541.410156 384.476562 536.195312 C 375.011719 530.976562 367.28125 526.707031 367.28125 526.707031 C 367.28125 524.871094 367.28125 524.0625 367.28125 523.742188 C 367.28125 523.421875 367.28125 523.148438 367.28125 523.148438 C 367.28125 521.3125 367.28125 520.507812 367.28125 520.1875 C 367.28125 519.867188 367.28125 519.59375 367.28125 519.59375 C 367.28125 518.679688 367.28125 518.132812 367.28125 517.8125 C 367.28125 517.492188 367.28125 517.222656 367.28125 517.222656 C 368.195312 512.621094 368.195312 510.226562 367.875 508.921875 C 367.554688 507.617188 367.28125 506.550781 367.28125 506.550781 C 367.28125 499.195312 366.746094 496.527344 366.09375 495.878906 C 365.441406 495.226562 364.910156 494.691406 364.910156 494.691406 Z M 364.910156 494.691406 " fill-opacity="0.9961" fill-rule="evenodd"/><path fill="#bc1c18" d="M 843.96875 497.0625 C 843.96875 550.363281 843.96875 566.113281 843.96875 566.429688 C 843.96875 566.75 843.96875 567.023438 843.96875 567.023438 C 843.96875 569.789062 843.96875 570.855469 843.96875 571.175781 C 843.96875 571.496094 843.96875 571.769531 843.96875 571.769531 C 843.96875 581.871094 843.96875 585.085938 843.96875 585.402344 C 843.96875 585.722656 843.96875 585.996094 843.96875 585.996094 C 843.96875 590.597656 843.96875 592.199219 843.96875 592.519531 C 843.96875 592.839844 843.96875 593.113281 843.96875 593.113281 C 844.882812 596.789062 844.621094 601.058594 843.96875 604.96875 C 843.316406 608.882812 841.714844 614.21875 840.410156 616.828125 C 839.105469 619.4375 836.4375 622.898438 834.484375 624.535156 C 832.527344 626.171875 814.644531 636.84375 794.757812 648.25 C 774.871094 659.660156 749.792969 674.066406 739.027344 680.265625 C 728.257812 686.46875 703.179688 700.875 683.292969 712.285156 C 663.410156 723.691406 643.664062 735.167969 639.417969 737.777344 C 635.175781 740.386719 630.917969 742.519531 629.933594 742.519531 C 628.949219 742.519531 627.085938 741.453125 625.785156 740.148438 C 623.777344 738.144531 623.410156 736.203125 623.410156 727.699219 C 623.410156 722.160156 623.410156 717.621094 623.410156 717.621094 C 623.410156 714.855469 623.410156 713.789062 623.410156 713.46875 C 623.410156 713.148438 623.410156 712.875 623.410156 712.875 C 623.410156 709.199219 623.410156 707.859375 623.410156 707.539062 C 623.410156 707.21875 623.410156 706.949219 623.410156 706.949219 C 623.410156 699.597656 623.410156 697.1875 623.410156 696.867188 C 623.410156 696.546875 623.410156 696.277344 623.410156 696.277344 C 623.410156 695.363281 623.410156 695.089844 623.410156 695.089844 C 623.410156 692.328125 623.410156 691.257812 623.410156 690.941406 C 623.410156 690.621094 623.410156 690.347656 623.410156 690.347656 C 623.410156 688.507812 623.410156 687.703125 623.410156 687.382812 C 623.410156 687.0625 623.410156 686.789062 623.410156 686.789062 C 624.324219 681.273438 624.0625 679.402344 623.410156 679.082031 C 622.757812 678.761719 622.226562 678.488281 622.226562 678.488281 C 623.140625 656.433594 623.410156 647.363281 623.410156 644.101562 C 623.410156 640.839844 623.410156 638.171875 623.410156 638.171875 C 623.410156 636.332031 623.410156 635.527344 623.410156 635.207031 C 623.410156 634.886719 623.410156 634.613281 623.410156 634.613281 C 622.5 632.777344 622.5 630.914062 622.820312 629.277344 C 623.140625 627.640625 623.410156 626.3125 623.410156 626.3125 C 623.410156 624.476562 623.410156 623.667969 623.410156 623.347656 C 623.410156 623.03125 623.410156 622.757812 623.410156 622.757812 C 623.410156 621.84375 623.410156 621.570312 623.410156 621.570312 C 623.410156 619.734375 623.140625 619.199219 622.820312 619.199219 C 622.5 619.199219 622.226562 619.199219 622.226562 619.199219 C 622.226562 618.285156 622.226562 618.011719 622.226562 618.011719 C 623.140625 618.011719 623.410156 617.480469 623.410156 616.828125 C 623.410156 616.175781 623.410156 615.640625 623.410156 615.640625 C 622.5 607.363281 622.226562 603.367188 622.226562 601.414062 C 622.226562 599.457031 622.226562 597.855469 622.226562 597.855469 C 623.140625 597.855469 623.410156 596.789062 623.410156 595.484375 C 623.410156 594.179688 623.410156 593.113281 623.410156 593.113281 C 623.410156 585.761719 623.410156 582.296875 623.410156 580.660156 C 623.410156 579.023438 623.410156 577.695312 623.410156 577.695312 C 624.324219 572.183594 624.324219 569.515625 624.003906 568.210938 C 623.683594 566.90625 623.410156 565.839844 623.410156 565.839844 C 623.410156 563.074219 623.410156 562.007812 623.410156 561.6875 C 623.410156 561.367188 623.945312 561.09375 624.597656 561.09375 C 625.25 561.09375 634.320312 566.429688 644.757812 572.953125 C 655.191406 579.476562 665.328125 585.605469 667.285156 586.589844 C 669.242188 587.574219 672.976562 588.367188 675.585938 588.367188 C 678.195312 588.367188 680.863281 587.835938 681.515625 587.183594 C 682.167969 586.53125 682.703125 585.996094 682.703125 585.996094 C 682.703125 585.996094 683.496094 585.722656 684.480469 585.402344 C 685.464844 585.085938 691.320312 581.871094 697.523438 578.289062 C 703.726562 574.707031 720.789062 565.101562 735.46875 556.945312 C 750.148438 548.785156 778.691406 532.777344 798.910156 521.371094 C 819.125 509.964844 837.542969 499.824219 843.96875 497.0625 Z M 834.484375 536.785156 C 834.484375 537.105469 833.15625 538.707031 831.519531 540.34375 L 828.554688 543.308594 C 838.703125 538.800781 838.988281 538.445312 836.855469 537.378906 C 835.550781 536.726562 834.484375 536.464844 834.484375 536.785156 Z M 834.484375 536.785156 " fill-opacity="0.9961" fill-rule="evenodd"/><path fill="#e80000" d="M 367.28125 506.550781 C 367.28125 506.550781 367.554688 507.617188 367.875 508.921875 C 368.195312 510.226562 368.195312 512.621094 367.28125 517.222656 C 366.367188 512.621094 366.367188 510.226562 366.6875 508.921875 C 367.007812 507.617188 367.28125 506.550781 367.28125 506.550781 Z M 367.28125 506.550781 " fill-opacity="0.4157" fill-rule="evenodd"/><path fill="#ff0000" d="M 367.28125 519.59375 C 367.28125 519.59375 367.28125 519.867188 367.28125 520.1875 C 367.28125 520.507812 367.28125 521.3125 367.28125 523.148438 C 366.367188 520.386719 366.367188 519.59375 366.6875 519.59375 C 367.007812 519.59375 367.28125 519.59375 367.28125 519.59375 Z M 367.28125 519.59375 " fill-opacity="0.0039" fill-rule="evenodd"/><path fill="#f43329" d="M 367.28125 526.707031 C 367.28125 526.707031 375.011719 530.976562 384.476562 536.195312 C 393.9375 541.410156 421.152344 556.625 444.949219 569.988281 C 468.75 583.351562 498.371094 600.167969 510.761719 607.339844 C 531.238281 619.199219 533.824219 620.386719 539.21875 620.386719 C 543.867188 620.386719 547.070312 619.351562 554.042969 615.640625 C 558.929688 613.03125 568.546875 607.695312 587.839844 596.667969 C 587.839844 603.097656 587.839844 605.242188 587.839844 605.5625 C 587.839844 605.882812 587.839844 606.15625 587.839844 606.15625 C 587.839844 608.917969 587.839844 609.984375 587.839844 610.304688 C 587.839844 610.625 587.839844 610.898438 587.839844 610.898438 C 587.839844 620.089844 587.839844 625.957031 587.839844 629.871094 C 587.839844 633.785156 587.839844 636.984375 587.839844 636.984375 C 587.839844 639.75 587.839844 640.816406 587.839844 641.136719 C 587.839844 641.457031 587.839844 641.730469 587.839844 641.730469 C 587.839844 649.082031 587.839844 651.488281 587.839844 651.808594 C 587.839844 652.128906 587.839844 652.402344 587.839844 652.402344 C 587.839844 655.164062 587.839844 656.230469 587.839844 656.550781 C 587.839844 656.871094 587.839844 657.144531 587.839844 657.144531 C 587.839844 669.097656 587.839844 685.105469 587.839844 700.425781 C 587.839844 715.746094 587.839844 728.292969 587.839844 728.292969 C 587.839844 731.054688 587.839844 732.121094 587.839844 732.441406 C 587.839844 732.761719 587.839844 733.035156 587.839844 733.035156 C 587.839844 737.898438 586.769531 739.605469 584.875 740.742188 C 583.238281 741.726562 581.101562 742.25 580.128906 741.929688 C 579.15625 741.609375 563.148438 732.539062 544.554688 721.769531 C 525.964844 711.003906 485.148438 687.523438 453.84375 669.59375 C 422.539062 651.667969 391.863281 634.046875 385.660156 630.464844 C 377.5625 625.769531 373.730469 622.78125 372.023438 619.792969 C 370.71875 617.515625 369.117188 613.769531 368.464844 611.492188 C 367.777344 609.097656 367.28125 590.347656 367.28125 567.023438 C 367.28125 544.851562 367.28125 526.707031 367.28125 526.707031 Z M 367.28125 526.707031 " fill-opacity="0.9961" fill-rule="evenodd"/><path fill="#a41614" d="M 834.484375 536.785156 C 834.484375 536.464844 835.550781 536.726562 836.855469 537.378906 C 838.988281 538.445312 838.703125 538.800781 828.554688 543.308594 L 831.519531 540.34375 C 833.15625 538.707031 834.484375 537.105469 834.484375 536.785156 Z M 834.484375 536.785156 " fill-opacity="1" fill-rule="evenodd"/><path fill="#cb0000" d="M 623.410156 565.839844 C 623.410156 565.839844 623.683594 566.90625 624.003906 568.210938 C 624.324219 569.515625 624.324219 572.183594 623.410156 577.695312 C 622.5 573.09375 622.5 570.441406 622.820312 568.804688 C 623.140625 567.167969 623.410156 565.839844 623.410156 565.839844 Z M 623.410156 565.839844 " fill-opacity="0.3882" fill-rule="evenodd"/><path fill="#ff0000" d="M 843.96875 567.023438 C 844.882812 567.023438 844.882812 568.089844 844.5625 569.394531 C 844.242188 570.699219 843.96875 571.769531 843.96875 571.769531 C 843.96875 571.769531 843.96875 571.496094 843.96875 571.175781 C 843.96875 570.855469 843.96875 569.789062 843.96875 567.023438 Z M 843.96875 567.023438 " fill-opacity="0.0039" fill-rule="evenodd"/><path fill="#ff0000" d="M 843.96875 585.996094 C 844.882812 588.761719 844.882812 590.347656 844.5625 591.332031 C 844.242188 592.316406 843.96875 593.113281 843.96875 593.113281 C 843.96875 593.113281 843.96875 592.839844 843.96875 592.519531 C 843.96875 592.199219 843.96875 590.597656 843.96875 585.996094 Z M 843.96875 585.996094 " fill-opacity="0.0039" fill-rule="evenodd"/><path fill="#ff0000" d="M 623.410156 593.113281 C 623.410156 593.113281 623.410156 594.179688 623.410156 595.484375 C 623.410156 596.789062 623.140625 597.855469 622.226562 597.855469 C 622.226562 594.179688 622.5 593.113281 622.820312 593.113281 C 623.140625 593.113281 623.410156 593.113281 623.410156 593.113281 Z M 623.410156 593.113281 " fill-opacity="0.0039" fill-rule="evenodd"/><path fill="#ff0000" d="M 587.839844 606.15625 C 588.75 606.15625 588.75 607.222656 588.429688 608.527344 C 588.109375 609.832031 587.839844 610.898438 587.839844 610.898438 C 587.839844 610.898438 587.839844 610.625 587.839844 610.304688 C 587.839844 609.984375 587.839844 608.917969 587.839844 606.15625 Z M 587.839844 606.15625 " fill-opacity="0.0039" fill-rule="evenodd"/><path fill="#ff0000" d="M 623.410156 615.640625 C 623.410156 615.640625 623.410156 616.175781 623.410156 616.828125 C 623.410156 617.480469 623.140625 618.011719 622.226562 618.011719 C 622.226562 616.175781 622.5 615.640625 622.820312 615.640625 C 623.140625 615.640625 623.410156 615.640625 623.410156 615.640625 Z M 623.410156 615.640625 " fill-opacity="0.0039" fill-rule="evenodd"/><path fill="#ff0000" d="M 622.226562 619.199219 C 622.226562 619.199219 622.5 619.199219 622.820312 619.199219 C 623.140625 619.199219 623.410156 619.734375 623.410156 621.570312 C 622.5 621.570312 622.226562 621.039062 622.226562 620.386719 C 622.226562 619.734375 622.226562 619.199219 622.226562 619.199219 Z M 622.226562 619.199219 " fill-opacity="0.0039" fill-rule="evenodd"/><path fill="#ff0000" d="M 623.410156 622.757812 C 623.410156 622.757812 623.410156 623.03125 623.410156 623.347656 C 623.410156 623.667969 623.410156 624.476562 623.410156 626.3125 C 622.5 623.550781 622.5 622.757812 622.820312 622.757812 C 623.140625 622.757812 623.410156 622.757812 623.410156 622.757812 Z M 623.410156 622.757812 " fill-opacity="0.0039" fill-rule="evenodd"/><path fill="#ff0000" d="M 623.410156 634.613281 C 623.410156 634.613281 623.410156 634.886719 623.410156 635.207031 C 623.410156 635.527344 623.410156 636.332031 623.410156 638.171875 C 622.5 635.410156 622.5 634.613281 622.820312 634.613281 C 623.140625 634.613281 623.410156 634.613281 623.410156 634.613281 Z M 623.410156 634.613281 " fill-opacity="0.0039" fill-rule="evenodd"/><path fill="#ff0000" d="M 587.839844 636.984375 C 588.75 636.984375 588.75 638.054688 588.429688 639.359375 C 588.109375 640.660156 587.839844 641.730469 587.839844 641.730469 C 587.839844 641.730469 587.839844 641.457031 587.839844 641.136719 C 587.839844 640.816406 587.839844 639.75 587.839844 636.984375 Z M 587.839844 636.984375 " fill-opacity="0.0078" fill-rule="evenodd"/><path fill="#ff0000" d="M 587.839844 652.402344 C 588.75 652.402344 588.75 653.46875 588.429688 654.773438 C 588.109375 656.078125 587.839844 657.144531 587.839844 657.144531 C 587.839844 657.144531 587.839844 656.871094 587.839844 656.550781 C 587.839844 656.230469 587.839844 655.164062 587.839844 652.402344 Z M 587.839844 652.402344 " fill-opacity="0.0039" fill-rule="evenodd"/><path fill="#db0000" d="M 622.226562 678.488281 C 622.226562 678.488281 622.757812 678.761719 623.410156 679.082031 C 624.0625 679.402344 624.324219 681.273438 623.410156 686.789062 C 622.5 686.789062 622.226562 684.914062 622.226562 682.640625 C 622.226562 680.363281 622.226562 678.488281 622.226562 678.488281 Z M 622.226562 678.488281 " fill-opacity="0.4196" fill-rule="evenodd"/><path fill="#ff0000" d="M 623.410156 690.347656 C 623.410156 690.347656 623.410156 690.621094 623.410156 690.941406 C 623.410156 691.257812 623.410156 692.328125 623.410156 695.089844 C 622.5 695.089844 622.5 694.023438 622.820312 692.71875 C 623.140625 691.414062 623.410156 690.347656 623.410156 690.347656 Z M 623.410156 690.347656 " fill-opacity="0.0039" fill-rule="evenodd"/><path fill="#ff0000" d="M 623.410156 696.277344 C 623.410156 696.277344 623.410156 696.546875 623.410156 696.867188 C 623.410156 697.1875 623.410156 699.597656 623.410156 706.949219 C 622.5 702.347656 622.5 699.953125 622.820312 698.648438 C 623.140625 697.34375 623.410156 696.277344 623.410156 696.277344 Z M 623.410156 696.277344 " fill-opacity="0.0039" fill-rule="evenodd"/><path fill="#ff0000" d="M 623.410156 712.875 C 623.410156 712.875 623.410156 713.148438 623.410156 713.46875 C 623.410156 713.789062 623.410156 714.855469 623.410156 717.621094 C 622.5 717.621094 622.5 716.550781 622.820312 715.25 C 623.140625 713.945312 623.410156 712.875 623.410156 712.875 Z M 623.410156 712.875 " fill-opacity="0.0039" fill-rule="evenodd"/><path fill="#ff0000" d="M 587.839844 728.292969 C 588.75 728.292969 588.75 729.359375 588.429688 730.664062 C 588.109375 731.96875 587.839844 733.035156 587.839844 733.035156 C 587.839844 733.035156 587.839844 732.761719 587.839844 732.441406 C 587.839844 732.121094 587.839844 731.054688 587.839844 728.292969 Z M 587.839844 728.292969 " fill-opacity="0.0039" fill-rule="evenodd"/></svg>